# xmcd
#
# Track frame offsets:
#	187
#	13795
#	38240
#	60197
#	102617
#	126807
#	146495
#	166625
#	196855
#	210445
#	224192
#	238730
#	262210
#	280122
#	299615
#	316545
#
# Disc length: 4415 seconds
#
# Revision: 0
# Processed by: cddbd v1.5.2PL0 Copyright (c) Steve Scherf et al.
# Submitted via: audiograbber 1.83.01
#
DISCID=f1113d10
DTITLE=Quicksilver Messenger Service - Sons Of Mercury: 1968-1975 [CD 2)
DYEAR=1991
DGENRE=Psychedelic Rock
TTITLE0=Shady Grove
TTITLE1=Flute Song
TTITLE2=Joseph's Coat
TTITLE3=Edward, The Mad Shirt Grinder
TTITLE4=Fresh Air
TTITLE5=Cobra
TTITLE6=Subway
TTITLE7=What About Me
TTITLE8=Local Color
TTITLE9=Hope
TTITLE10=Fire Brothers
TTITLE11=Don't Cry My Lady Love
TTITLE12=I Found Love
TTITLE13=Doin' Time In The U.S.A.
TTITLE14=Gypsy Lights
TTITLE15=Cowboy On The Run
EXTD=
EXTT0=
EXTT1=
EXTT2=
EXTT3=
EXTT4=
EXTT5=
EXTT6=
EXTT7=
EXTT8=
EXTT9=
EXTT10=
EXTT11=
EXTT12=
EXTT13=
EXTT14=
EXTT15=
PLAYORDER=
